<svg width="194" height="28" viewBox="0 0 194 28" fill="none" xmlns="http://www.w3.org/2000/svg">
<path d="M6.608 21.276L5.033 17.195C4.98633 17.0737 4.93733 16.9337 4.886 16.775C4.83467 16.6117 4.78567 16.439 4.739 16.257C4.641 16.635 4.54067 16.95 4.438 17.202L2.863 21.276H6.608ZM9.436 25H8.386C8.26467 25 8.16667 24.9697 8.092 24.909C8.01733 24.8483 7.96133 24.7713 7.924 24.678L6.986 22.256H2.485L1.547 24.678C1.519 24.762 1.46533 24.8367 1.386 24.902C1.30667 24.9673 1.20867 25 1.092 25H0.042L4.053 14.969H5.425L9.436 25ZM11.6173 19.33C11.8413 18.8447 12.1166 18.4667 12.4433 18.196C12.7699 17.9207 13.1689 17.783 13.6403 17.783C13.7896 17.783 13.9319 17.7993 14.0673 17.832C14.2073 17.8647 14.3309 17.916 14.4383 17.986L14.3473 18.917C14.3193 19.0337 14.2493 19.092 14.1373 19.092C14.0719 19.092 13.9763 19.078 13.8503 19.05C13.7243 19.022 13.5819 19.008 13.4233 19.008C13.1993 19.008 12.9986 19.0407 12.8213 19.106C12.6486 19.1713 12.4923 19.2693 12.3523 19.4C12.2169 19.526 12.0933 19.6847 11.9813 19.876C11.8739 20.0627 11.7759 20.2773 11.6873 20.52V25H10.4343V17.909H11.1483C11.2836 17.909 11.3769 17.9347 11.4283 17.986C11.4796 18.0373 11.5146 18.126 11.5333 18.252L11.6173 19.33ZM21.3649 17.909V25H20.6229C20.4455 25 20.3335 24.9137 20.2869 24.741L20.1889 23.978C19.8809 24.3187 19.5355 24.594 19.1529 24.804C18.7702 25.0093 18.3315 25.112 17.8369 25.112C17.4495 25.112 17.1065 25.049 16.8079 24.923C16.5139 24.7923 16.2665 24.6103 16.0659 24.377C15.8652 24.1437 15.7135 23.8613 15.6109 23.53C15.5129 23.1987 15.4639 22.8323 15.4639 22.431V17.909H16.7099V22.431C16.7099 22.9677 16.8312 23.383 17.0739 23.677C17.3212 23.971 17.6969 24.118 18.2009 24.118C18.5695 24.118 18.9125 24.0317 19.2299 23.859C19.5519 23.6817 19.8482 23.439 20.1189 23.131V17.909H21.3649ZM24.5165 18.938C24.6705 18.7653 24.8338 18.609 25.0065 18.469C25.1792 18.329 25.3612 18.21 25.5525 18.112C25.7485 18.0093 25.9538 17.9323 26.1685 17.881C26.3878 17.825 26.6235 17.797 26.8755 17.797C27.2628 17.797 27.6035 17.8623 27.8975 17.993C28.1962 18.119 28.4435 18.301 28.6395 18.539C28.8402 18.7723 28.9918 19.0547 29.0945 19.386C29.1972 19.7173 29.2485 20.0837 29.2485 20.485V25H27.9955V20.485C27.9955 19.9483 27.8718 19.533 27.6245 19.239C27.3818 18.9403 27.0108 18.791 26.5115 18.791C26.1428 18.791 25.7975 18.8797 25.4755 19.057C25.1582 19.2343 24.8642 19.4747 24.5935 19.778V25H23.3405V17.909H24.0895C24.2668 17.909 24.3765 17.9953 24.4185 18.168L24.5165 18.938ZM38.071 21.535C38.071 22.095 38.001 22.5967 37.861 23.04C37.7257 23.4833 37.5227 23.859 37.252 24.167C36.986 24.4703 36.657 24.7037 36.265 24.867C35.873 25.0303 35.4227 25.112 34.914 25.112C34.452 25.112 33.9807 25.0467 33.5 24.916C33.5094 24.7807 33.521 24.6477 33.535 24.517C33.549 24.3817 33.5607 24.2487 33.57 24.118C33.5794 24.0387 33.6074 23.9757 33.654 23.929C33.7054 23.8777 33.7824 23.852 33.885 23.852C33.969 23.852 34.0787 23.873 34.214 23.915C34.354 23.957 34.5407 23.978 34.774 23.978C35.082 23.978 35.3574 23.9313 35.6 23.838C35.8427 23.7447 36.0457 23.6 36.209 23.404C36.3724 23.208 36.496 22.9583 36.58 22.655C36.6687 22.347 36.713 21.983 36.713 21.563V14.969H38.071V21.535ZM41.3689 18.854C41.6722 18.532 42.0082 18.2753 42.3769 18.084C42.7456 17.8927 43.1702 17.797 43.6509 17.797C44.0382 17.797 44.3789 17.8623 44.6729 17.993C44.9716 18.119 45.2189 18.301 45.4149 18.539C45.6156 18.7723 45.7672 19.0547 45.8699 19.386C45.9726 19.7173 46.0239 20.0837 46.0239 20.485V25H44.7709V20.485C44.7709 19.9483 44.6472 19.533 44.3999 19.239C44.1572 18.9403 43.7862 18.791 43.2869 18.791C42.9182 18.791 42.5729 18.8797 42.2509 19.057C41.9336 19.2343 41.6396 19.4747 41.3689 19.778V25H40.1159V14.689H41.3689V18.854ZM51.7655 21.808C51.1915 21.8267 50.7015 21.8733 50.2955 21.948C49.8942 22.018 49.5652 22.1113 49.3085 22.228C49.0565 22.3447 48.8722 22.4823 48.7555 22.641C48.6435 22.7997 48.5875 22.977 48.5875 23.173C48.5875 23.3597 48.6179 23.5207 48.6785 23.656C48.7392 23.7913 48.8209 23.9033 48.9235 23.992C49.0309 24.076 49.1545 24.139 49.2945 24.181C49.4392 24.2183 49.5932 24.237 49.7565 24.237C49.9759 24.237 50.1765 24.216 50.3585 24.174C50.5405 24.1273 50.7109 24.062 50.8695 23.978C51.0329 23.894 51.1869 23.7937 51.3315 23.677C51.4809 23.5603 51.6255 23.4273 51.7655 23.278V21.808ZM47.7405 18.91C48.1325 18.532 48.5549 18.2497 49.0075 18.063C49.4602 17.8763 49.9619 17.783 50.5125 17.783C50.9092 17.783 51.2615 17.8483 51.5695 17.979C51.8775 18.1097 52.1365 18.2917 52.3465 18.525C52.5565 18.7583 52.7152 19.0407 52.8225 19.372C52.9299 19.7033 52.9835 20.0673 52.9835 20.464V25H52.4305C52.3092 25 52.2159 24.9813 52.1505 24.944C52.0852 24.902 52.0339 24.8227 51.9965 24.706L51.8565 24.034C51.6699 24.2067 51.4879 24.3607 51.3105 24.496C51.1332 24.6267 50.9465 24.7387 50.7505 24.832C50.5545 24.9207 50.3445 24.9883 50.1205 25.035C49.9012 25.0863 49.6562 25.112 49.3855 25.112C49.1102 25.112 48.8512 25.0747 48.6085 25C48.3659 24.9207 48.1535 24.804 47.9715 24.65C47.7942 24.496 47.6519 24.3023 47.5445 24.069C47.4419 23.831 47.3905 23.551 47.3905 23.229C47.3905 22.949 47.4675 22.6807 47.6215 22.424C47.7755 22.1627 48.0252 21.9317 48.3705 21.731C48.7159 21.5303 49.1662 21.367 49.7215 21.241C50.2769 21.1103 50.9582 21.0357 51.7655 21.017V20.464C51.7655 19.9133 51.6465 19.498 51.4085 19.218C51.1705 18.9333 50.8229 18.791 50.3655 18.791C50.0575 18.791 49.7985 18.8307 49.5885 18.91C49.3832 18.9847 49.2035 19.071 49.0495 19.169C48.9002 19.2623 48.7695 19.3487 48.6575 19.428C48.5502 19.5027 48.4429 19.54 48.3355 19.54C48.2515 19.54 48.1792 19.519 48.1185 19.477C48.0579 19.4303 48.0065 19.3743 47.9645 19.309L47.7405 18.91Z" fill="#313945"/>
<path opacity="0.7" d="M3.43 9.23C3.70667 9.23 3.945 9.19833 4.145 9.135C4.345 9.07167 4.50833 8.98333 4.635 8.87C4.765 8.75333 4.86 8.61667 4.92 8.46C4.98 8.3 5.01 8.125 5.01 7.935C5.01 7.565 4.87833 7.27333 4.615 7.06C4.35167 6.84333 3.95667 6.735 3.43 6.735H1.88V9.23H3.43ZM1.88 3.6V6.045H3.16C3.43333 6.045 3.67 6.015 3.87 5.955C4.07333 5.895 4.24 5.81167 4.37 5.705C4.50333 5.59833 4.60167 5.47 4.665 5.32C4.72833 5.16667 4.76 5 4.76 4.82C4.76 4.39667 4.63333 4.08833 4.38 3.895C4.12667 3.69833 3.73333 3.6 3.2 3.6H1.88ZM3.2 2.835C3.64 2.835 4.01833 2.87833 4.335 2.965C4.655 3.05167 4.91667 3.175 5.12 3.335C5.32667 3.495 5.47833 3.69167 5.575 3.925C5.67167 4.155 5.72 4.415 5.72 4.705C5.72 4.88167 5.69167 5.05167 5.635 5.215C5.58167 5.375 5.5 5.525 5.39 5.665C5.28 5.805 5.14 5.93167 4.97 6.045C4.80333 6.155 4.60667 6.245 4.38 6.315C4.90667 6.415 5.30167 6.60333 5.565 6.88C5.83167 7.15333 5.965 7.51333 5.965 7.96C5.965 8.26333 5.90833 8.54 5.795 8.79C5.685 9.04 5.52167 9.255 5.305 9.435C5.09167 9.615 4.82833 9.755 4.515 9.855C4.20167 9.95167 3.845 10 3.445 10H0.915V2.835H3.2ZM11.3998 9.155C11.4965 9.155 11.5732 9.18333 11.6298 9.24C11.6865 9.29667 11.7148 9.37 11.7148 9.46V10H6.93484V9.695C6.93484 9.63167 6.94818 9.56667 6.97484 9.5C7.00151 9.43333 7.04318 9.37167 7.09984 9.315L9.39484 7.01C9.58484 6.81667 9.75818 6.63167 9.91484 6.455C10.0715 6.275 10.2048 6.095 10.3148 5.915C10.4248 5.735 10.5098 5.55333 10.5698 5.37C10.6298 5.18333 10.6598 4.985 10.6598 4.775C10.6598 4.565 10.6265 4.38167 10.5598 4.225C10.4932 4.065 10.4015 3.93333 10.2848 3.83C10.1715 3.72667 10.0365 3.65 9.87984 3.6C9.72318 3.54667 9.55484 3.52 9.37484 3.52C9.19151 3.52 9.02318 3.54667 8.86984 3.6C8.71651 3.65333 8.57984 3.72833 8.45984 3.825C8.34318 3.91833 8.24484 4.03 8.16484 4.16C8.08484 4.29 8.02818 4.43333 7.99484 4.59C7.95484 4.70667 7.89984 4.785 7.82984 4.825C7.76318 4.86167 7.66818 4.87167 7.54484 4.855L7.07984 4.775C7.12651 4.44833 7.21651 4.16 7.34984 3.91C7.48651 3.65667 7.65651 3.445 7.85984 3.275C8.06651 3.105 8.30151 2.97667 8.56484 2.89C8.82818 2.8 9.11318 2.755 9.41984 2.755C9.72318 2.755 10.0065 2.8 10.2698 2.89C10.5332 2.98 10.7615 3.11167 10.9548 3.285C11.1482 3.455 11.2998 3.66333 11.4098 3.91C11.5198 4.15667 11.5748 4.43667 11.5748 4.75C11.5748 5.01667 11.5348 5.265 11.4548 5.495C11.3748 5.72167 11.2665 5.93833 11.1298 6.145C10.9932 6.35167 10.8348 6.55333 10.6548 6.75C10.4782 6.94667 10.2898 7.145 10.0898 7.345L8.19984 9.275C8.33318 9.23833 8.46818 9.21 8.60484 9.19C8.74151 9.16667 8.87318 9.155 8.99984 9.155H11.3998ZM15.6956 9.23C15.9723 9.23 16.2106 9.19833 16.4106 9.135C16.6106 9.07167 16.774 8.98333 16.9006 8.87C17.0306 8.75333 17.1256 8.61667 17.1856 8.46C17.2456 8.3 17.2756 8.125 17.2756 7.935C17.2756 7.565 17.144 7.27333 16.8806 7.06C16.6173 6.84333 16.2223 6.735 15.6956 6.735H14.1456V9.23H15.6956ZM14.1456 3.6V6.045H15.4256C15.699 6.045 15.9356 6.015 16.1356 5.955C16.339 5.895 16.5056 5.81167 16.6356 5.705C16.769 5.59833 16.8673 5.47 16.9306 5.32C16.994 5.16667 17.0256 5 17.0256 4.82C17.0256 4.39667 16.899 4.08833 16.6456 3.895C16.3923 3.69833 15.999 3.6 15.4656 3.6H14.1456ZM15.4656 2.835C15.9056 2.835 16.284 2.87833 16.6006 2.965C16.9206 3.05167 17.1823 3.175 17.3856 3.335C17.5923 3.495 17.744 3.69167 17.8406 3.925C17.9373 4.155 17.9856 4.415 17.9856 4.705C17.9856 4.88167 17.9573 5.05167 17.9006 5.215C17.8473 5.375 17.7656 5.525 17.6556 5.665C17.5456 5.805 17.4056 5.93167 17.2356 6.045C17.069 6.155 16.8723 6.245 16.6456 6.315C17.1723 6.415 17.5673 6.60333 17.8306 6.88C18.0973 7.15333 18.2306 7.51333 18.2306 7.96C18.2306 8.26333 18.174 8.54 18.0606 8.79C17.9506 9.04 17.7873 9.255 17.5706 9.435C17.3573 9.615 17.094 9.755 16.7806 9.855C16.4673 9.95167 16.1106 10 15.7106 10H13.1806V2.835H15.4656ZM23.1741 3.625V6.13H26.1191V6.92H23.1741V10H22.2041V2.835H26.6191V3.625H23.1741ZM28.5688 4.935V10H27.6788V4.935H28.5688ZM28.7588 3.345C28.7588 3.43167 28.7405 3.51333 28.7038 3.59C28.6705 3.66333 28.6238 3.73 28.5638 3.79C28.5072 3.84667 28.4388 3.89167 28.3588 3.925C28.2822 3.95833 28.2005 3.975 28.1138 3.975C28.0272 3.975 27.9455 3.95833 27.8688 3.925C27.7955 3.89167 27.7305 3.84667 27.6738 3.79C27.6172 3.73 27.5722 3.66333 27.5388 3.59C27.5055 3.51333 27.4888 3.43167 27.4888 3.345C27.4888 3.25833 27.5055 3.17667 27.5388 3.1C27.5722 3.02 27.6172 2.95167 27.6738 2.895C27.7305 2.835 27.7955 2.78833 27.8688 2.755C27.9455 2.72167 28.0272 2.705 28.1138 2.705C28.2005 2.705 28.2822 2.72167 28.3588 2.755C28.4388 2.78833 28.5072 2.835 28.5638 2.895C28.6238 2.95167 28.6705 3.02 28.7038 3.1C28.7405 3.17667 28.7588 3.25833 28.7588 3.345ZM33.4212 6.915C33.4212 6.70833 33.3912 6.52 33.3312 6.35C33.2745 6.17667 33.1895 6.02833 33.0762 5.905C32.9662 5.77833 32.8312 5.68167 32.6712 5.615C32.5112 5.545 32.3295 5.51 32.1262 5.51C31.6995 5.51 31.3612 5.635 31.1112 5.885C30.8645 6.13167 30.7112 6.475 30.6512 6.915H33.4212ZM34.1412 9.29C34.0312 9.42333 33.8995 9.54 33.7462 9.64C33.5928 9.73667 33.4278 9.81667 33.2512 9.88C33.0778 9.94333 32.8978 9.99 32.7112 10.02C32.5245 10.0533 32.3395 10.07 32.1562 10.07C31.8062 10.07 31.4828 10.0117 31.1862 9.895C30.8928 9.775 30.6378 9.60167 30.4212 9.375C30.2078 9.145 30.0412 8.86167 29.9212 8.525C29.8012 8.18833 29.7412 7.80167 29.7412 7.365C29.7412 7.01167 29.7945 6.68167 29.9012 6.375C30.0112 6.06833 30.1678 5.80333 30.3712 5.58C30.5745 5.35333 30.8228 5.17667 31.1162 5.05C31.4095 4.92 31.7395 4.855 32.1062 4.855C32.4095 4.855 32.6895 4.90667 32.9462 5.01C33.2062 5.11 33.4295 5.25667 33.6162 5.45C33.8062 5.64 33.9545 5.87667 34.0612 6.16C34.1678 6.44 34.2212 6.76 34.2212 7.12C34.2212 7.26 34.2062 7.35333 34.1762 7.4C34.1462 7.44667 34.0895 7.47 34.0062 7.47H30.6212C30.6312 7.79 30.6745 8.06833 30.7512 8.305C30.8312 8.54167 30.9412 8.74 31.0812 8.9C31.2212 9.05667 31.3878 9.175 31.5812 9.255C31.7745 9.33167 31.9912 9.37 32.2312 9.37C32.4545 9.37 32.6462 9.345 32.8062 9.295C32.9695 9.24167 33.1095 9.185 33.2262 9.125C33.3428 9.065 33.4395 9.01 33.5162 8.96C33.5962 8.90667 33.6645 8.88 33.7212 8.88C33.7945 8.88 33.8512 8.90833 33.8912 8.965L34.1412 9.29ZM36.2344 2.635V10H35.3444V2.635H36.2344ZM40.9777 6.14C40.811 5.91667 40.631 5.76167 40.4377 5.675C40.2443 5.585 40.0277 5.54 39.7877 5.54C39.3177 5.54 38.956 5.70833 38.7027 6.045C38.4493 6.38167 38.3227 6.86167 38.3227 7.485C38.3227 7.815 38.351 8.09833 38.4077 8.335C38.4643 8.56833 38.5477 8.76167 38.6577 8.915C38.7677 9.065 38.9027 9.175 39.0627 9.245C39.2227 9.315 39.4043 9.35 39.6077 9.35C39.901 9.35 40.156 9.28333 40.3727 9.15C40.5927 9.01667 40.7943 8.82833 40.9777 8.585V6.14ZM41.8677 2.635V10H41.3377C41.211 10 41.131 9.93833 41.0977 9.815L41.0177 9.2C40.801 9.46 40.5543 9.67 40.2777 9.83C40.001 9.99 39.681 10.07 39.3177 10.07C39.0277 10.07 38.7643 10.015 38.5277 9.905C38.291 9.79167 38.0893 9.62667 37.9227 9.41C37.756 9.19333 37.6277 8.92333 37.5377 8.6C37.4477 8.27667 37.4027 7.905 37.4027 7.485C37.4027 7.11167 37.4527 6.765 37.5527 6.445C37.6527 6.12167 37.796 5.84167 37.9827 5.605C38.1693 5.36833 38.3977 5.18333 38.6677 5.05C38.941 4.91333 39.2477 4.845 39.5877 4.845C39.8977 4.845 40.1627 4.89833 40.3827 5.005C40.606 5.10833 40.8043 5.25333 40.9777 5.44V2.635H41.8677ZM50.462 9.21L50.457 10H46.042V2.835H50.457V3.625H47.012V6.005H49.802V6.765H47.012V9.21H50.462ZM55.7634 10H54.9084C54.8351 10 54.7768 9.98167 54.7334 9.945C54.6934 9.905 54.6601 9.86167 54.6334 9.815L53.3584 7.83C53.3451 7.87667 53.3301 7.92333 53.3134 7.97C53.3001 8.01333 53.2801 8.05333 53.2534 8.09L52.0734 9.815C52.0401 9.86167 52.0034 9.905 51.9634 9.945C51.9268 9.98167 51.8751 10 51.8084 10H51.0134L52.7884 7.4L51.0834 4.935H51.9384C52.0118 4.935 52.0651 4.94667 52.0984 4.97C52.1318 4.99333 52.1618 5.02667 52.1884 5.07L53.4334 6.97C53.4601 6.87333 53.5018 6.78 53.5584 6.69L54.6484 5.09C54.6784 5.04333 54.7101 5.00667 54.7434 4.98C54.7801 4.95 54.8234 4.935 54.8734 4.935H55.6934L53.9884 7.355L55.7634 10ZM59.7493 6.915C59.7493 6.70833 59.7193 6.52 59.6593 6.35C59.6026 6.17667 59.5176 6.02833 59.4043 5.905C59.2943 5.77833 59.1593 5.68167 58.9993 5.615C58.8393 5.545 58.6576 5.51 58.4543 5.51C58.0276 5.51 57.6893 5.635 57.4393 5.885C57.1926 6.13167 57.0393 6.475 56.9793 6.915H59.7493ZM60.4693 9.29C60.3593 9.42333 60.2276 9.54 60.0743 9.64C59.921 9.73667 59.756 9.81667 59.5793 9.88C59.406 9.94333 59.226 9.99 59.0393 10.02C58.8526 10.0533 58.6676 10.07 58.4843 10.07C58.1343 10.07 57.811 10.0117 57.5143 9.895C57.221 9.775 56.966 9.60167 56.7493 9.375C56.536 9.145 56.3693 8.86167 56.2493 8.525C56.1293 8.18833 56.0693 7.80167 56.0693 7.365C56.0693 7.01167 56.1226 6.68167 56.2293 6.375C56.3393 6.06833 56.496 5.80333 56.6993 5.58C56.9026 5.35333 57.151 5.17667 57.4443 5.05C57.7376 4.92 58.0676 4.855 58.4343 4.855C58.7376 4.855 59.0176 4.90667 59.2743 5.01C59.5343 5.11 59.7576 5.25667 59.9443 5.45C60.1343 5.64 60.2826 5.87667 60.3893 6.16C60.496 6.44 60.5493 6.76 60.5493 7.12C60.5493 7.26 60.5343 7.35333 60.5043 7.4C60.4743 7.44667 60.4176 7.47 60.3343 7.47H56.9493C56.9593 7.79 57.0026 8.06833 57.0793 8.305C57.1593 8.54167 57.2693 8.74 57.4093 8.9C57.5493 9.05667 57.716 9.175 57.9093 9.255C58.1026 9.33167 58.3193 9.37 58.5593 9.37C58.7826 9.37 58.9743 9.345 59.1343 9.295C59.2976 9.24167 59.4376 9.185 59.5543 9.125C59.671 9.065 59.7676 9.01 59.8443 8.96C59.9243 8.90667 59.9926 8.88 60.0493 8.88C60.1226 8.88 60.1793 8.90833 60.2193 8.965L60.4693 9.29ZM65.1675 5.835C65.1408 5.87167 65.1142 5.9 65.0875 5.92C65.0608 5.94 65.0242 5.95 64.9775 5.95C64.9275 5.95 64.8725 5.93 64.8125 5.89C64.7525 5.84667 64.6775 5.8 64.5875 5.75C64.5008 5.7 64.3925 5.655 64.2625 5.615C64.1358 5.57167 63.9792 5.55 63.7925 5.55C63.5425 5.55 63.3225 5.595 63.1325 5.685C62.9425 5.77167 62.7825 5.89833 62.6525 6.065C62.5258 6.23167 62.4292 6.43333 62.3625 6.67C62.2992 6.90667 62.2675 7.17167 62.2675 7.465C62.2675 7.77167 62.3025 8.045 62.3725 8.285C62.4425 8.52167 62.5408 8.72167 62.6675 8.885C62.7975 9.045 62.9525 9.16833 63.1325 9.255C63.3158 9.33833 63.5208 9.38 63.7475 9.38C63.9642 9.38 64.1425 9.355 64.2825 9.305C64.4225 9.25167 64.5375 9.19333 64.6275 9.13C64.7208 9.06667 64.7975 9.01 64.8575 8.96C64.9208 8.90667 64.9825 8.88 65.0425 8.88C65.1158 8.88 65.1725 8.90833 65.2125 8.965L65.4625 9.29C65.3525 9.42667 65.2275 9.54333 65.0875 9.64C64.9475 9.73667 64.7958 9.81833 64.6325 9.885C64.4725 9.94833 64.3042 9.995 64.1275 10.025C63.9508 10.055 63.7708 10.07 63.5875 10.07C63.2708 10.07 62.9758 10.0117 62.7025 9.895C62.4325 9.77833 62.1975 9.61 61.9975 9.39C61.7975 9.16667 61.6408 8.89333 61.5275 8.57C61.4142 8.24667 61.3575 7.87833 61.3575 7.465C61.3575 7.08833 61.4092 6.74 61.5125 6.42C61.6192 6.1 61.7725 5.825 61.9725 5.595C62.1758 5.36167 62.4242 5.18 62.7175 5.05C63.0142 4.92 63.3542 4.855 63.7375 4.855C64.0942 4.855 64.4075 4.91333 64.6775 5.03C64.9508 5.14333 65.1925 5.305 65.4025 5.515L65.1675 5.835ZM70.5829 4.935V10H70.0529C69.9262 10 69.8462 9.93833 69.8129 9.815L69.7429 9.27C69.5229 9.51333 69.2762 9.71 69.0029 9.86C68.7296 10.0067 68.4162 10.08 68.0629 10.08C67.7862 10.08 67.5412 10.035 67.3279 9.945C67.1179 9.85167 66.9412 9.72167 66.7979 9.555C66.6546 9.38833 66.5462 9.18667 66.4729 8.95C66.4029 8.71333 66.3679 8.45167 66.3679 8.165V4.935H67.2579V8.165C67.2579 8.54833 67.3446 8.845 67.5179 9.055C67.6946 9.265 67.9629 9.37 68.3229 9.37C68.5862 9.37 68.8312 9.30833 69.0579 9.185C69.2879 9.05833 69.4996 8.885 69.6929 8.665V4.935H70.5829ZM76.6941 10H75.8041V5.68H73.1941V8.72C73.1941 8.93333 73.2457 9.09167 73.3491 9.195C73.4524 9.29833 73.5857 9.35 73.7491 9.35C73.8424 9.35 73.9224 9.33833 73.9891 9.315C74.0591 9.28833 74.1191 9.26 74.1691 9.23C74.2191 9.2 74.2607 9.17333 74.2941 9.15C74.3307 9.12333 74.3624 9.11 74.3891 9.11C74.4357 9.11 74.4774 9.13833 74.5141 9.195L74.7741 9.62C74.6207 9.76333 74.4357 9.87667 74.2191 9.96C74.0024 10.04 73.7791 10.08 73.5491 10.08C73.1491 10.08 72.8407 9.96833 72.6241 9.745C72.4107 9.52167 72.3041 9.2 72.3041 8.78V5.68H71.6941C71.6407 5.68 71.5957 5.665 71.5591 5.635C71.5224 5.60167 71.5041 5.55167 71.5041 5.485V5.13L72.3341 5.02L72.5391 3.46C72.5491 3.41 72.5707 3.37 72.6041 3.34C72.6407 3.30667 72.6874 3.29 72.7441 3.29H73.1941V5.035H76.6941V10ZM76.9141 3.31C76.9141 3.39667 76.8957 3.47833 76.8591 3.555C76.8257 3.62833 76.7791 3.69333 76.7191 3.75C76.6624 3.80667 76.5957 3.85167 76.5191 3.885C76.4424 3.91833 76.3607 3.935 76.2741 3.935C76.1874 3.935 76.1057 3.91833 76.0291 3.885C75.9557 3.85167 75.8907 3.80667 75.8341 3.75C75.7774 3.69333 75.7324 3.62833 75.6991 3.555C75.6657 3.47833 75.6491 3.39667 75.6491 3.31C75.6491 3.22333 75.6657 3.14167 75.6991 3.065C75.7324 2.985 75.7774 2.91667 75.8341 2.86C75.8907 2.8 75.9557 2.75333 76.0291 2.72C76.1057 2.68667 76.1874 2.67 76.2741 2.67C76.3607 2.67 76.4424 2.68667 76.5191 2.72C76.5957 2.75333 76.6624 2.8 76.7191 2.86C76.7791 2.91667 76.8257 2.985 76.8591 3.065C76.8957 3.14167 76.9141 3.22333 76.9141 3.31ZM82.4962 4.935L80.4312 10H79.6312L77.5662 4.935H78.2912C78.3645 4.935 78.4245 4.95333 78.4712 4.99C78.5178 5.02667 78.5495 5.07 78.5662 5.12L79.8512 8.38C79.8912 8.50333 79.9262 8.62333 79.9562 8.74C79.9862 8.85667 80.0145 8.97333 80.0412 9.09C80.0678 8.97333 80.0962 8.85667 80.1262 8.74C80.1562 8.62333 80.1928 8.50333 80.2362 8.38L81.5362 5.12C81.5562 5.06667 81.5895 5.02333 81.6362 4.99C81.6828 4.95333 81.7378 4.935 81.8012 4.935H82.4962ZM86.5657 6.915C86.5657 6.70833 86.5357 6.52 86.4757 6.35C86.419 6.17667 86.334 6.02833 86.2207 5.905C86.1107 5.77833 85.9757 5.68167 85.8157 5.615C85.6557 5.545 85.474 5.51 85.2707 5.51C84.844 5.51 84.5057 5.635 84.2557 5.885C84.009 6.13167 83.8557 6.475 83.7957 6.915H86.5657ZM87.2857 9.29C87.1757 9.42333 87.044 9.54 86.8907 9.64C86.7374 9.73667 86.5724 9.81667 86.3957 9.88C86.2224 9.94333 86.0424 9.99 85.8557 10.02C85.669 10.0533 85.484 10.07 85.3007 10.07C84.9507 10.07 84.6274 10.0117 84.3307 9.895C84.0374 9.775 83.7824 9.60167 83.5657 9.375C83.3524 9.145 83.1857 8.86167 83.0657 8.525C82.9457 8.18833 82.8857 7.80167 82.8857 7.365C82.8857 7.01167 82.939 6.68167 83.0457 6.375C83.1557 6.06833 83.3124 5.80333 83.5157 5.58C83.719 5.35333 83.9674 5.17667 84.2607 5.05C84.554 4.92 84.884 4.855 85.2507 4.855C85.554 4.855 85.834 4.90667 86.0907 5.01C86.3507 5.11 86.574 5.25667 86.7607 5.45C86.9507 5.64 87.099 5.87667 87.2057 6.16C87.3124 6.44 87.3657 6.76 87.3657 7.12C87.3657 7.26 87.3507 7.35333 87.3207 7.4C87.2907 7.44667 87.234 7.47 87.1507 7.47H83.7657C83.7757 7.79 83.819 8.06833 83.8957 8.305C83.9757 8.54167 84.0857 8.74 84.2257 8.9C84.3657 9.05667 84.5324 9.175 84.7257 9.255C84.919 9.33167 85.1357 9.37 85.3757 9.37C85.599 9.37 85.7907 9.345 85.9507 9.295C86.114 9.24167 86.254 9.185 86.3707 9.125C86.4874 9.065 86.584 9.01 86.6607 8.96C86.7407 8.90667 86.809 8.88 86.8657 8.88C86.939 8.88 86.9957 8.90833 87.0357 8.965L87.2857 9.29Z" fill="#313945"/>
<path d="M127.608 21.276L126.033 17.195C125.986 17.0737 125.937 16.9337 125.886 16.775C125.835 16.6117 125.786 16.439 125.739 16.257C125.641 16.635 125.541 16.95 125.438 17.202L123.863 21.276H127.608ZM130.436 25H129.386C129.265 25 129.167 24.9697 129.092 24.909C129.017 24.8483 128.961 24.7713 128.924 24.678L127.986 22.256H123.485L122.547 24.678C122.519 24.762 122.465 24.8367 122.386 24.902C122.307 24.9673 122.209 25 122.092 25H121.042L125.053 14.969H126.425L130.436 25ZM132.61 18.938C132.764 18.7653 132.928 18.609 133.1 18.469C133.273 18.329 133.455 18.21 133.646 18.112C133.842 18.0093 134.048 17.9323 134.262 17.881C134.482 17.825 134.717 17.797 134.969 17.797C135.357 17.797 135.697 17.8623 135.991 17.993C136.29 18.119 136.537 18.301 136.733 18.539C136.934 18.7723 137.086 19.0547 137.188 19.386C137.291 19.7173 137.342 20.0837 137.342 20.485V25H136.089V20.485C136.089 19.9483 135.966 19.533 135.718 19.239C135.476 18.9403 135.105 18.791 134.605 18.791C134.237 18.791 133.891 18.8797 133.569 19.057C133.252 19.2343 132.958 19.4747 132.687 19.778V25H131.434V17.909H132.183C132.361 17.909 132.47 17.9953 132.512 18.168L132.61 18.938ZM140.557 17.909V25H139.311V17.909H140.557ZM140.823 15.683C140.823 15.8043 140.797 15.9187 140.746 16.026C140.699 16.1287 140.634 16.222 140.55 16.306C140.471 16.3853 140.375 16.4483 140.263 16.495C140.156 16.5417 140.041 16.565 139.92 16.565C139.799 16.565 139.684 16.5417 139.577 16.495C139.474 16.4483 139.383 16.3853 139.304 16.306C139.225 16.222 139.162 16.1287 139.115 16.026C139.068 15.9187 139.045 15.8043 139.045 15.683C139.045 15.5617 139.068 15.4473 139.115 15.34C139.162 15.228 139.225 15.1323 139.304 15.053C139.383 14.969 139.474 14.9037 139.577 14.857C139.684 14.8103 139.799 14.787 139.92 14.787C140.041 14.787 140.156 14.8103 140.263 14.857C140.375 14.9037 140.471 14.969 140.55 15.053C140.634 15.1323 140.699 15.228 140.746 15.34C140.797 15.4473 140.823 15.5617 140.823 15.683ZM143.857 14.689V20.758H144.179C144.273 20.758 144.35 20.7463 144.41 20.723C144.476 20.695 144.543 20.6413 144.613 20.562L146.853 18.161C146.919 18.0817 146.986 18.021 147.056 17.979C147.131 17.9323 147.229 17.909 147.35 17.909H148.477L145.866 20.688C145.74 20.8467 145.605 20.9703 145.46 21.059C145.544 21.115 145.619 21.1803 145.684 21.255C145.754 21.325 145.82 21.4067 145.88 21.5L148.652 25H147.539C147.432 25 147.339 24.9837 147.259 24.951C147.185 24.9137 147.119 24.8483 147.063 24.755L144.732 21.85C144.662 21.752 144.592 21.689 144.522 21.661C144.457 21.6283 144.354 21.612 144.214 21.612H143.857V25H142.604V14.689H143.857ZM153.557 21.808C152.983 21.8267 152.493 21.8733 152.087 21.948C151.685 22.018 151.356 22.1113 151.1 22.228C150.848 22.3447 150.663 22.4823 150.547 22.641C150.435 22.7997 150.379 22.977 150.379 23.173C150.379 23.3597 150.409 23.5207 150.47 23.656C150.53 23.7913 150.612 23.9033 150.715 23.992C150.822 24.076 150.946 24.139 151.086 24.181C151.23 24.2183 151.384 24.237 151.548 24.237C151.767 24.237 151.968 24.216 152.15 24.174C152.332 24.1273 152.502 24.062 152.661 23.978C152.824 23.894 152.978 23.7937 153.123 23.677C153.272 23.5603 153.417 23.4273 153.557 23.278V21.808ZM149.532 18.91C149.924 18.532 150.346 18.2497 150.799 18.063C151.251 17.8763 151.753 17.783 152.304 17.783C152.7 17.783 153.053 17.8483 153.361 17.979C153.669 18.1097 153.928 18.2917 154.138 18.525C154.348 18.7583 154.506 19.0407 154.614 19.372C154.721 19.7033 154.775 20.0673 154.775 20.464V25H154.222C154.1 25 154.007 24.9813 153.942 24.944C153.876 24.902 153.825 24.8227 153.788 24.706L153.648 24.034C153.461 24.2067 153.279 24.3607 153.102 24.496C152.924 24.6267 152.738 24.7387 152.542 24.832C152.346 24.9207 152.136 24.9883 151.912 25.035C151.692 25.0863 151.447 25.112 151.177 25.112C150.901 25.112 150.642 25.0747 150.4 25C150.157 24.9207 149.945 24.804 149.763 24.65C149.585 24.496 149.443 24.3023 149.336 24.069C149.233 23.831 149.182 23.551 149.182 23.229C149.182 22.949 149.259 22.6807 149.413 22.424C149.567 22.1627 149.816 21.9317 150.162 21.731C150.507 21.5303 150.957 21.367 151.513 21.241C152.068 21.1103 152.749 21.0357 153.557 21.017V20.464C153.557 19.9133 153.438 19.498 153.2 19.218C152.962 18.9333 152.614 18.791 152.157 18.791C151.849 18.791 151.59 18.8307 151.38 18.91C151.174 18.9847 150.995 19.071 150.841 19.169C150.691 19.2623 150.561 19.3487 150.449 19.428C150.341 19.5027 150.234 19.54 150.127 19.54C150.043 19.54 149.97 19.519 149.91 19.477C149.849 19.4303 149.798 19.3743 149.756 19.309L149.532 18.91ZM165.68 16.537C165.638 16.607 165.591 16.6607 165.54 16.698C165.493 16.7307 165.435 16.747 165.365 16.747C165.285 16.747 165.192 16.7073 165.085 16.628C164.977 16.5487 164.842 16.4623 164.679 16.369C164.52 16.271 164.326 16.1823 164.098 16.103C163.874 16.0237 163.601 15.984 163.279 15.984C162.975 15.984 162.707 16.026 162.474 16.11C162.245 16.1893 162.051 16.299 161.893 16.439C161.739 16.579 161.622 16.7447 161.543 16.936C161.463 17.1227 161.424 17.3257 161.424 17.545C161.424 17.825 161.491 18.0583 161.627 18.245C161.767 18.427 161.949 18.5833 162.173 18.714C162.401 18.8447 162.658 18.959 162.943 19.057C163.232 19.1503 163.526 19.2483 163.825 19.351C164.128 19.4537 164.422 19.5703 164.707 19.701C164.996 19.827 165.253 19.988 165.477 20.184C165.705 20.38 165.887 20.6203 166.023 20.905C166.163 21.1897 166.233 21.5397 166.233 21.955C166.233 22.3937 166.158 22.8067 166.009 23.194C165.859 23.5767 165.64 23.9103 165.351 24.195C165.066 24.4797 164.714 24.7037 164.294 24.867C163.878 25.0303 163.405 25.112 162.873 25.112C162.219 25.112 161.627 24.9953 161.095 24.762C160.563 24.524 160.108 24.2043 159.73 23.803L160.122 23.159C160.159 23.1077 160.203 23.0657 160.255 23.033C160.311 22.9957 160.371 22.977 160.437 22.977C160.497 22.977 160.565 23.0027 160.64 23.054C160.719 23.1007 160.808 23.1613 160.906 23.236C161.004 23.3107 161.116 23.3923 161.242 23.481C161.368 23.5697 161.51 23.6513 161.669 23.726C161.832 23.8007 162.016 23.8637 162.222 23.915C162.427 23.9617 162.658 23.985 162.915 23.985C163.237 23.985 163.524 23.9407 163.776 23.852C164.028 23.7633 164.24 23.6397 164.413 23.481C164.59 23.3177 164.725 23.124 164.819 22.9C164.912 22.676 164.959 22.4263 164.959 22.151C164.959 21.8477 164.889 21.6003 164.749 21.409C164.613 21.213 164.434 21.0497 164.21 20.919C163.986 20.7883 163.729 20.6787 163.44 20.59C163.15 20.4967 162.856 20.4033 162.558 20.31C162.259 20.212 161.965 20.1 161.676 19.974C161.386 19.848 161.13 19.6847 160.906 19.484C160.682 19.2833 160.5 19.0337 160.36 18.735C160.224 18.4317 160.157 18.0583 160.157 17.615C160.157 17.2603 160.224 16.9173 160.36 16.586C160.5 16.2547 160.7 15.9607 160.962 15.704C161.228 15.4473 161.552 15.242 161.935 15.088C162.322 14.934 162.765 14.857 163.265 14.857C163.825 14.857 164.333 14.9457 164.791 15.123C165.253 15.3003 165.659 15.557 166.009 15.893L165.68 16.537ZM169.104 17.909V25H167.858V17.909H169.104ZM169.37 15.683C169.37 15.8043 169.344 15.9187 169.293 16.026C169.246 16.1287 169.181 16.222 169.097 16.306C169.017 16.3853 168.922 16.4483 168.81 16.495C168.702 16.5417 168.588 16.565 168.467 16.565C168.345 16.565 168.231 16.5417 168.124 16.495C168.021 16.4483 167.93 16.3853 167.851 16.306C167.771 16.222 167.708 16.1287 167.662 16.026C167.615 15.9187 167.592 15.8043 167.592 15.683C167.592 15.5617 167.615 15.4473 167.662 15.34C167.708 15.228 167.771 15.1323 167.851 15.053C167.93 14.969 168.021 14.9037 168.124 14.857C168.231 14.8103 168.345 14.787 168.467 14.787C168.588 14.787 168.702 14.8103 168.81 14.857C168.922 14.9037 169.017 14.969 169.097 15.053C169.181 15.1323 169.246 15.228 169.293 15.34C169.344 15.4473 169.37 15.5617 169.37 15.683ZM172.327 18.938C172.481 18.7653 172.644 18.609 172.817 18.469C172.99 18.329 173.172 18.21 173.363 18.112C173.559 18.0093 173.764 17.9323 173.979 17.881C174.198 17.825 174.434 17.797 174.686 17.797C175.073 17.797 175.414 17.8623 175.708 17.993C176.007 18.119 176.254 18.301 176.45 18.539C176.651 18.7723 176.802 19.0547 176.905 19.386C177.008 19.7173 177.059 20.0837 177.059 20.485V25H175.806V20.485C175.806 19.9483 175.682 19.533 175.435 19.239C175.192 18.9403 174.821 18.791 174.322 18.791C173.953 18.791 173.608 18.8797 173.286 19.057C172.969 19.2343 172.675 19.4747 172.404 19.778V25H171.151V17.909H171.9C172.077 17.909 172.187 17.9953 172.229 18.168L172.327 18.938ZM181.429 21.535C181.681 21.535 181.902 21.5 182.094 21.43C182.285 21.36 182.446 21.262 182.577 21.136C182.707 21.01 182.805 20.8607 182.871 20.688C182.936 20.5107 182.969 20.317 182.969 20.107C182.969 19.673 182.836 19.3277 182.57 19.071C182.308 18.8143 181.928 18.686 181.429 18.686C180.925 18.686 180.54 18.8143 180.274 19.071C180.012 19.3277 179.882 19.673 179.882 20.107C179.882 20.317 179.914 20.5107 179.98 20.688C180.05 20.8607 180.15 21.01 180.281 21.136C180.411 21.262 180.572 21.36 180.764 21.43C180.955 21.5 181.177 21.535 181.429 21.535ZM183.676 25.385C183.676 25.2123 183.627 25.0723 183.529 24.965C183.431 24.8577 183.298 24.7737 183.13 24.713C182.966 24.6523 182.775 24.6103 182.556 24.587C182.336 24.559 182.103 24.538 181.856 24.524C181.613 24.51 181.366 24.496 181.114 24.482C180.862 24.468 180.619 24.4447 180.386 24.412C180.124 24.5333 179.91 24.6873 179.742 24.874C179.578 25.056 179.497 25.2707 179.497 25.518C179.497 25.6767 179.536 25.8237 179.616 25.959C179.7 26.099 179.826 26.218 179.994 26.316C180.162 26.4187 180.372 26.498 180.624 26.554C180.88 26.6147 181.181 26.645 181.527 26.645C181.863 26.645 182.164 26.6147 182.43 26.554C182.696 26.4933 182.92 26.407 183.102 26.295C183.288 26.183 183.431 26.05 183.529 25.896C183.627 25.742 183.676 25.5717 183.676 25.385ZM184.943 18.189V18.651C184.943 18.805 184.845 18.903 184.649 18.945L183.844 19.05C184.002 19.358 184.082 19.6987 184.082 20.072C184.082 20.4173 184.014 20.7323 183.879 21.017C183.748 21.297 183.566 21.5373 183.333 21.738C183.099 21.9387 182.819 22.0927 182.493 22.2C182.166 22.3073 181.811 22.361 181.429 22.361C181.097 22.361 180.785 22.3213 180.491 22.242C180.341 22.3353 180.227 22.4357 180.148 22.543C180.068 22.6457 180.029 22.7507 180.029 22.858C180.029 23.026 180.096 23.1543 180.232 23.243C180.372 23.327 180.554 23.3877 180.778 23.425C181.002 23.4623 181.256 23.4857 181.541 23.495C181.83 23.5043 182.124 23.5207 182.423 23.544C182.726 23.5627 183.02 23.5977 183.305 23.649C183.594 23.7003 183.851 23.7843 184.075 23.901C184.299 24.0177 184.478 24.1787 184.614 24.384C184.754 24.5893 184.824 24.8553 184.824 25.182C184.824 25.4853 184.747 25.7793 184.593 26.064C184.443 26.3487 184.226 26.6007 183.942 26.82C183.657 27.044 183.307 27.2213 182.892 27.352C182.481 27.4873 182.017 27.555 181.499 27.555C180.981 27.555 180.528 27.5037 180.141 27.401C179.753 27.2983 179.431 27.1607 179.175 26.988C178.918 26.8153 178.724 26.6147 178.594 26.386C178.468 26.162 178.405 25.9263 178.405 25.679C178.405 25.329 178.514 25.0327 178.734 24.79C178.953 24.5473 179.254 24.3537 179.637 24.209C179.427 24.1157 179.259 23.992 179.133 23.838C179.011 23.6793 178.951 23.467 178.951 23.201C178.951 23.0983 178.969 22.9933 179.007 22.886C179.044 22.774 179.1 22.6643 179.175 22.557C179.254 22.445 179.35 22.34 179.462 22.242C179.574 22.144 179.704 22.0577 179.854 21.983C179.504 21.787 179.231 21.528 179.035 21.206C178.839 20.8793 178.741 20.5013 178.741 20.072C178.741 19.7267 178.806 19.414 178.937 19.134C179.072 18.8493 179.259 18.609 179.497 18.413C179.735 18.2123 180.017 18.0583 180.344 17.951C180.675 17.8437 181.037 17.79 181.429 17.79C181.737 17.79 182.024 17.825 182.29 17.895C182.556 17.9603 182.798 18.0583 183.018 18.189H184.943ZM187.484 18.854C187.787 18.532 188.123 18.2753 188.492 18.084C188.861 17.8927 189.285 17.797 189.766 17.797C190.153 17.797 190.494 17.8623 190.788 17.993C191.087 18.119 191.334 18.301 191.53 18.539C191.731 18.7723 191.882 19.0547 191.985 19.386C192.088 19.7173 192.139 20.0837 192.139 20.485V25H190.886V20.485C190.886 19.9483 190.762 19.533 190.515 19.239C190.272 18.9403 189.901 18.791 189.402 18.791C189.033 18.791 188.688 18.8797 188.366 19.057C188.049 19.2343 187.755 19.4747 187.484 19.778V25H186.231V14.689H187.484V18.854Z" fill="#313945"/>
<path opacity="0.7" d="M125.72 7.34L124.595 4.425C124.562 4.33833 124.527 4.23833 124.49 4.125C124.453 4.00833 124.418 3.885 124.385 3.755C124.315 4.025 124.243 4.25 124.17 4.43L123.045 7.34H125.72ZM127.74 10H126.99C126.903 10 126.833 9.97833 126.78 9.935C126.727 9.89167 126.687 9.83667 126.66 9.77L125.99 8.04H122.775L122.105 9.77C122.085 9.83 122.047 9.88333 121.99 9.93C121.933 9.97667 121.863 10 121.78 10H121.03L123.895 2.835H124.875L127.74 10ZM131.423 5.77C131.383 5.84333 131.321 5.88 131.238 5.88C131.188 5.88 131.131 5.86167 131.068 5.825C131.004 5.78833 130.926 5.74833 130.833 5.705C130.743 5.65833 130.634 5.61667 130.508 5.58C130.381 5.54 130.231 5.52 130.058 5.52C129.908 5.52 129.773 5.54 129.653 5.58C129.533 5.61667 129.429 5.66833 129.343 5.735C129.259 5.80167 129.194 5.88 129.148 5.97C129.104 6.05667 129.083 6.15167 129.083 6.255C129.083 6.385 129.119 6.49333 129.193 6.58C129.269 6.66667 129.369 6.74167 129.493 6.805C129.616 6.86833 129.756 6.925 129.913 6.975C130.069 7.02167 130.229 7.07333 130.393 7.13C130.559 7.18333 130.721 7.24333 130.878 7.31C131.034 7.37667 131.174 7.46 131.298 7.56C131.421 7.66 131.519 7.78333 131.593 7.93C131.669 8.07333 131.708 8.24667 131.708 8.45C131.708 8.68333 131.666 8.9 131.583 9.1C131.499 9.29667 131.376 9.46833 131.213 9.615C131.049 9.75833 130.849 9.87167 130.613 9.955C130.376 10.0383 130.103 10.08 129.793 10.08C129.439 10.08 129.119 10.0233 128.833 9.91C128.546 9.79333 128.303 9.645 128.103 9.465L128.313 9.125C128.339 9.08167 128.371 9.04833 128.408 9.025C128.444 9.00167 128.491 8.99 128.548 8.99C128.608 8.99 128.671 9.01333 128.738 9.06C128.804 9.10667 128.884 9.15833 128.978 9.215C129.074 9.27167 129.191 9.32333 129.328 9.37C129.464 9.41667 129.634 9.44 129.838 9.44C130.011 9.44 130.163 9.41833 130.293 9.375C130.423 9.32833 130.531 9.26667 130.618 9.19C130.704 9.11333 130.768 9.025 130.808 8.925C130.851 8.825 130.873 8.71833 130.873 8.605C130.873 8.465 130.834 8.35 130.758 8.26C130.684 8.16667 130.586 8.08833 130.463 8.025C130.339 7.95833 130.198 7.90167 130.038 7.855C129.881 7.805 129.719 7.75333 129.553 7.7C129.389 7.64667 129.228 7.58667 129.068 7.52C128.911 7.45 128.771 7.36333 128.648 7.26C128.524 7.15667 128.424 7.03 128.348 6.88C128.274 6.72667 128.238 6.54167 128.238 6.325C128.238 6.13167 128.278 5.94667 128.358 5.77C128.438 5.59 128.554 5.43333 128.708 5.3C128.861 5.16333 129.049 5.055 129.273 4.975C129.496 4.895 129.751 4.855 130.038 4.855C130.371 4.855 130.669 4.90833 130.933 5.015C131.199 5.11833 131.429 5.26167 131.623 5.445L131.423 5.77ZM135.749 5.77C135.709 5.84333 135.647 5.88 135.564 5.88C135.514 5.88 135.457 5.86167 135.394 5.825C135.33 5.78833 135.252 5.74833 135.159 5.705C135.069 5.65833 134.96 5.61667 134.834 5.58C134.707 5.54 134.557 5.52 134.384 5.52C134.234 5.52 134.099 5.54 133.979 5.58C133.859 5.61667 133.755 5.66833 133.669 5.735C133.585 5.80167 133.52 5.88 133.474 5.97C133.43 6.05667 133.409 6.15167 133.409 6.255C133.409 6.385 133.445 6.49333 133.519 6.58C133.595 6.66667 133.695 6.74167 133.819 6.805C133.942 6.86833 134.082 6.925 134.239 6.975C134.395 7.02167 134.555 7.07333 134.719 7.13C134.885 7.18333 135.047 7.24333 135.204 7.31C135.36 7.37667 135.5 7.46 135.624 7.56C135.747 7.66 135.845 7.78333 135.919 7.93C135.995 8.07333 136.034 8.24667 136.034 8.45C136.034 8.68333 135.992 8.9 135.909 9.1C135.825 9.29667 135.702 9.46833 135.539 9.615C135.375 9.75833 135.175 9.87167 134.939 9.955C134.702 10.0383 134.429 10.08 134.119 10.08C133.765 10.08 133.445 10.0233 133.159 9.91C132.872 9.79333 132.629 9.645 132.429 9.465L132.639 9.125C132.665 9.08167 132.697 9.04833 132.734 9.025C132.77 9.00167 132.817 8.99 132.874 8.99C132.934 8.99 132.997 9.01333 133.064 9.06C133.13 9.10667 133.21 9.15833 133.304 9.215C133.4 9.27167 133.517 9.32333 133.654 9.37C133.79 9.41667 133.96 9.44 134.164 9.44C134.337 9.44 134.489 9.41833 134.619 9.375C134.749 9.32833 134.857 9.26667 134.944 9.19C135.03 9.11333 135.094 9.025 135.134 8.925C135.177 8.825 135.199 8.71833 135.199 8.605C135.199 8.465 135.16 8.35 135.084 8.26C135.01 8.16667 134.912 8.08833 134.789 8.025C134.665 7.95833 134.524 7.90167 134.364 7.855C134.207 7.805 134.045 7.75333 133.879 7.7C133.715 7.64667 133.554 7.58667 133.394 7.52C133.237 7.45 133.097 7.36333 132.974 7.26C132.85 7.15667 132.75 7.03 132.674 6.88C132.6 6.72667 132.564 6.54167 132.564 6.325C132.564 6.13167 132.604 5.94667 132.684 5.77C132.764 5.59 132.88 5.43333 133.034 5.3C133.187 5.16333 133.375 5.055 133.599 4.975C133.822 4.895 134.077 4.855 134.364 4.855C134.697 4.855 134.995 4.90833 135.259 5.015C135.525 5.11833 135.755 5.26167 135.949 5.445L135.749 5.77ZM139.26 4.855C139.63 4.855 139.963 4.91667 140.26 5.04C140.557 5.16333 140.81 5.33833 141.02 5.565C141.23 5.79167 141.39 6.06667 141.5 6.39C141.613 6.71 141.67 7.06833 141.67 7.465C141.67 7.865 141.613 8.225 141.5 8.545C141.39 8.865 141.23 9.13833 141.02 9.365C140.81 9.59167 140.557 9.76667 140.26 9.89C139.963 10.01 139.63 10.07 139.26 10.07C138.887 10.07 138.55 10.01 138.25 9.89C137.953 9.76667 137.7 9.59167 137.49 9.365C137.28 9.13833 137.118 8.865 137.005 8.545C136.895 8.225 136.84 7.865 136.84 7.465C136.84 7.06833 136.895 6.71 137.005 6.39C137.118 6.06667 137.28 5.79167 137.49 5.565C137.7 5.33833 137.953 5.16333 138.25 5.04C138.55 4.91667 138.887 4.855 139.26 4.855ZM139.26 9.375C139.76 9.375 140.133 9.20833 140.38 8.875C140.627 8.53833 140.75 8.07 140.75 7.47C140.75 6.86667 140.627 6.39667 140.38 6.06C140.133 5.72333 139.76 5.555 139.26 5.555C139.007 5.555 138.785 5.59833 138.595 5.685C138.408 5.77167 138.252 5.89667 138.125 6.06C138.002 6.22333 137.908 6.425 137.845 6.665C137.785 6.90167 137.755 7.17 137.755 7.47C137.755 8.07 137.878 8.53833 138.125 8.875C138.375 9.20833 138.753 9.375 139.26 9.375ZM146.324 5.835C146.297 5.87167 146.27 5.9 146.244 5.92C146.217 5.94 146.18 5.95 146.134 5.95C146.084 5.95 146.029 5.93 145.969 5.89C145.909 5.84667 145.834 5.8 145.744 5.75C145.657 5.7 145.549 5.655 145.419 5.615C145.292 5.57167 145.135 5.55 144.949 5.55C144.699 5.55 144.479 5.595 144.289 5.685C144.099 5.77167 143.939 5.89833 143.809 6.065C143.682 6.23167 143.585 6.43333 143.519 6.67C143.455 6.90667 143.424 7.17167 143.424 7.465C143.424 7.77167 143.459 8.045 143.529 8.285C143.599 8.52167 143.697 8.72167 143.824 8.885C143.954 9.045 144.109 9.16833 144.289 9.255C144.472 9.33833 144.677 9.38 144.904 9.38C145.12 9.38 145.299 9.355 145.439 9.305C145.579 9.25167 145.694 9.19333 145.784 9.13C145.877 9.06667 145.954 9.01 146.014 8.96C146.077 8.90667 146.139 8.88 146.199 8.88C146.272 8.88 146.329 8.90833 146.369 8.965L146.619 9.29C146.509 9.42667 146.384 9.54333 146.244 9.64C146.104 9.73667 145.952 9.81833 145.789 9.885C145.629 9.94833 145.46 9.995 145.284 10.025C145.107 10.055 144.927 10.07 144.744 10.07C144.427 10.07 144.132 10.0117 143.859 9.895C143.589 9.77833 143.354 9.61 143.154 9.39C142.954 9.16667 142.797 8.89333 142.684 8.57C142.57 8.24667 142.514 7.87833 142.514 7.465C142.514 7.08833 142.565 6.74 142.669 6.42C142.775 6.1 142.929 5.825 143.129 5.595C143.332 5.36167 143.58 5.18 143.874 5.05C144.17 4.92 144.51 4.855 144.894 4.855C145.25 4.855 145.564 4.91333 145.834 5.03C146.107 5.14333 146.349 5.305 146.559 5.515L146.324 5.835ZM148.514 4.935V10H147.624V4.935H148.514ZM148.704 3.345C148.704 3.43167 148.686 3.51333 148.649 3.59C148.616 3.66333 148.569 3.73 148.509 3.79C148.452 3.84667 148.384 3.89167 148.304 3.925C148.227 3.95833 148.146 3.975 148.059 3.975C147.972 3.975 147.891 3.95833 147.814 3.925C147.741 3.89167 147.676 3.84667 147.619 3.79C147.562 3.73 147.517 3.66333 147.484 3.59C147.451 3.51333 147.434 3.43167 147.434 3.345C147.434 3.25833 147.451 3.17667 147.484 3.1C147.517 3.02 147.562 2.95167 147.619 2.895C147.676 2.835 147.741 2.78833 147.814 2.755C147.891 2.72167 147.972 2.705 148.059 2.705C148.146 2.705 148.227 2.72167 148.304 2.755C148.384 2.78833 148.452 2.835 148.509 2.895C148.569 2.95167 148.616 3.02 148.649 3.1C148.686 3.17667 148.704 3.25833 148.704 3.345ZM152.721 7.72C152.311 7.73333 151.961 7.76667 151.671 7.82C151.385 7.87 151.15 7.93667 150.966 8.02C150.786 8.10333 150.655 8.20167 150.571 8.315C150.491 8.42833 150.451 8.555 150.451 8.695C150.451 8.82833 150.473 8.94333 150.516 9.04C150.56 9.13667 150.618 9.21667 150.691 9.28C150.768 9.34 150.856 9.385 150.956 9.415C151.06 9.44167 151.17 9.455 151.286 9.455C151.443 9.455 151.586 9.44 151.716 9.41C151.846 9.37667 151.968 9.33 152.081 9.27C152.198 9.21 152.308 9.13833 152.411 9.055C152.518 8.97167 152.621 8.87667 152.721 8.77V7.72ZM149.846 5.65C150.126 5.38 150.428 5.17833 150.751 5.045C151.075 4.91167 151.433 4.845 151.826 4.845C152.11 4.845 152.361 4.89167 152.581 4.985C152.801 5.07833 152.986 5.20833 153.136 5.375C153.286 5.54167 153.4 5.74333 153.476 5.98C153.553 6.21667 153.591 6.47667 153.591 6.76V10H153.196C153.11 10 153.043 9.98667 152.996 9.96C152.95 9.93 152.913 9.87333 152.886 9.79L152.786 9.31C152.653 9.43333 152.523 9.54333 152.396 9.64C152.27 9.73333 152.136 9.81333 151.996 9.88C151.856 9.94333 151.706 9.99167 151.546 10.025C151.39 10.0617 151.215 10.08 151.021 10.08C150.825 10.08 150.64 10.0533 150.466 10C150.293 9.94333 150.141 9.86 150.011 9.75C149.885 9.64 149.783 9.50167 149.706 9.335C149.633 9.165 149.596 8.965 149.596 8.735C149.596 8.535 149.651 8.34333 149.761 8.16C149.871 7.97333 150.05 7.80833 150.296 7.665C150.543 7.52167 150.865 7.405 151.261 7.315C151.658 7.22167 152.145 7.16833 152.721 7.155V6.76C152.721 6.36667 152.636 6.07 152.466 5.87C152.296 5.66667 152.048 5.565 151.721 5.565C151.501 5.565 151.316 5.59333 151.166 5.65C151.02 5.70333 150.891 5.765 150.781 5.835C150.675 5.90167 150.581 5.96333 150.501 6.02C150.425 6.07333 150.348 6.1 150.271 6.1C150.211 6.1 150.16 6.085 150.116 6.055C150.073 6.02167 150.036 5.98167 150.006 5.935L149.846 5.65ZM156.434 10.08C156.034 10.08 155.725 9.96833 155.509 9.745C155.295 9.52167 155.189 9.2 155.189 8.78V5.68H154.579C154.525 5.68 154.48 5.665 154.444 5.635C154.407 5.60167 154.389 5.55167 154.389 5.485V5.13L155.219 5.025L155.424 3.46C155.434 3.41 155.455 3.37 155.489 3.34C155.525 3.30667 155.572 3.29 155.629 3.29H156.079V5.035H157.544V5.68H156.079V8.72C156.079 8.93333 156.13 9.09167 156.234 9.195C156.337 9.29833 156.47 9.35 156.634 9.35C156.727 9.35 156.807 9.33833 156.874 9.315C156.944 9.28833 157.004 9.26 157.054 9.23C157.104 9.2 157.145 9.17333 157.179 9.15C157.215 9.12333 157.247 9.11 157.274 9.11C157.32 9.11 157.362 9.13833 157.399 9.195L157.659 9.62C157.505 9.76333 157.32 9.87667 157.104 9.96C156.887 10.04 156.664 10.08 156.434 10.08ZM161.824 6.915C161.824 6.70833 161.794 6.52 161.734 6.35C161.677 6.17667 161.592 6.02833 161.479 5.905C161.369 5.77833 161.234 5.68167 161.074 5.615C160.914 5.545 160.732 5.51 160.529 5.51C160.102 5.51 159.764 5.635 159.514 5.885C159.267 6.13167 159.114 6.475 159.054 6.915H161.824ZM162.544 9.29C162.434 9.42333 162.302 9.54 162.149 9.64C161.995 9.73667 161.83 9.81667 161.654 9.88C161.48 9.94333 161.3 9.99 161.114 10.02C160.927 10.0533 160.742 10.07 160.559 10.07C160.209 10.07 159.885 10.0117 159.589 9.895C159.295 9.775 159.04 9.60167 158.824 9.375C158.61 9.145 158.444 8.86167 158.324 8.525C158.204 8.18833 158.144 7.80167 158.144 7.365C158.144 7.01167 158.197 6.68167 158.304 6.375C158.414 6.06833 158.57 5.80333 158.774 5.58C158.977 5.35333 159.225 5.17667 159.519 5.05C159.812 4.92 160.142 4.855 160.509 4.855C160.812 4.855 161.092 4.90667 161.349 5.01C161.609 5.11 161.832 5.25667 162.019 5.45C162.209 5.64 162.357 5.87667 162.464 6.16C162.57 6.44 162.624 6.76 162.624 7.12C162.624 7.26 162.609 7.35333 162.579 7.4C162.549 7.44667 162.492 7.47 162.409 7.47H159.024C159.034 7.79 159.077 8.06833 159.154 8.305C159.234 8.54167 159.344 8.74 159.484 8.9C159.624 9.05667 159.79 9.175 159.984 9.255C160.177 9.33167 160.394 9.37 160.634 9.37C160.857 9.37 161.049 9.345 161.209 9.295C161.372 9.24167 161.512 9.185 161.629 9.125C161.745 9.065 161.842 9.01 161.919 8.96C161.999 8.90667 162.067 8.88 162.124 8.88C162.197 8.88 162.254 8.90833 162.294 8.965L162.544 9.29Z" fill="#313945"/>
<path d="M110.354 12.3536C110.549 12.1583 110.549 11.8417 110.354 11.6464L107.172 8.46447C106.976 8.2692 106.66 8.2692 106.464 8.46447C106.269 8.65973 106.269 8.97631 106.464 9.17157L109.293 12L106.464 14.8284C106.269 15.0237 106.269 15.3403 106.464 15.5355C106.66 15.7308 106.976 15.7308 107.172 15.5355L110.354 12.3536ZM95 12.5H110V11.5H95V12.5Z" fill="#3896FF"/>
</svg>
