<svg width="23" height="25" viewBox="0 0 23 25" fill="none" xmlns="http://www.w3.org/2000/svg">
<path d="M8.59697 23.3634C6.37463 13.4324 12.0433 5.34932 16.789 5.08887L21.2001 8.23965L19.7658 16.7695L21.8303 19.5824V23.3634H12.2452H8.59697Z" fill="#D7D9E6"/>
<path d="M11.7462 6.78042C12.0944 6.78042 12.4284 6.64208 12.6747 6.39583C12.9209 6.14958 13.0593 5.81559 13.0593 5.46734C13.0593 5.11908 12.9209 4.7851 12.6747 4.53884C12.4284 4.29259 12.0944 4.15425 11.7462 4.15425C11.3979 4.15425 11.0639 4.29259 10.8177 4.53884C10.5714 4.7851 10.4331 5.11908 10.4331 5.46734C10.4331 5.81559 10.5714 6.14958 10.8177 6.39583C11.0639 6.64208 11.3979 6.78042 11.7462 6.78042ZM21.1985 18.5423V10.1297H21.3434C22.7503 10.1297 23.3284 8.32115 22.1784 7.50668L12.9624 0.965664C12.6071 0.713247 12.182 0.577637 11.7462 0.577637C11.3103 0.577637 10.8853 0.713247 10.53 0.965664L1.31079 7.50668C0.163904 8.32115 0.738921 10.1281 2.14574 10.1281H2.29383V18.5407C1.34702 19.1488 0.718441 20.2106 0.718441 21.4189V23.5189C0.718441 23.7278 0.80143 23.9282 0.949152 24.0759C1.09687 24.2236 1.29723 24.3066 1.50614 24.3066H21.9862C22.1951 24.3066 22.3955 24.2236 22.5432 24.0759C22.6909 23.9282 22.7739 23.7278 22.7739 23.5189V21.4189C22.7739 20.2106 22.1469 19.1488 21.1985 18.5423ZM11.4405 2.25118C11.5292 2.18838 11.6352 2.15464 11.7438 2.15464C11.8524 2.15464 11.9584 2.18838 12.0471 2.25118L20.9307 8.55274H2.5585L11.4421 2.25118H11.4405ZM19.62 10.1281V18.0145C19.5329 18.0081 19.4457 18.0049 19.3584 18.0051H16.4692V10.1297H19.62V10.1281ZM3.86922 18.0145V10.1297H7.02V18.0066H4.13073C4.04251 18.0066 3.95429 18.0098 3.86764 18.0161L3.86922 18.0145ZM4.13231 19.5805H19.3616C20.3761 19.5805 21.1985 20.4028 21.1985 21.4189V22.7312H2.29383V21.4189C2.29383 20.4028 3.11776 19.5805 4.13231 19.5805ZM10.9585 18.0051H8.59539V10.1297H10.9585V18.0066V18.0051ZM12.5339 18.0051V10.1297H14.8969V18.0066H12.5339V18.0051Z" fill="black"/>
</svg>
