<svg width="25" height="27" viewBox="0 0 25 27" fill="none" xmlns="http://www.w3.org/2000/svg">
<path d="M10.4209 24.6509C8.37071 15.4892 19.4137 9.77641 23.7916 9.53613L21.4662 14.7682L23.7915 16.5122L23.2102 19.4189L20.8261 21.1277L16.2342 21.7442L15.0715 25.2322L10.4209 24.6509Z" fill="#D7D9E6"/>
<path d="M12.76 16.8958C10.8945 16.8958 9.3855 15.4424 9.3855 13.617C9.3855 11.7916 10.8945 10.3267 12.76 10.3267C14.6255 10.3267 16.0988 11.7916 16.0988 13.617C16.0988 15.4424 14.6255 16.8958 12.76 16.8958" stroke="black"/>
<path d="M23.4769 16.3613C23.2511 16.0125 22.9303 15.6637 22.5144 15.4428C22.1817 15.28 21.9678 15.0126 21.7777 14.6987C21.1717 13.6988 21.5282 12.3849 22.5382 11.792C23.7264 11.1292 24.1066 9.65265 23.4174 8.5016L22.6214 7.12965C21.9441 5.9786 20.4588 5.57167 19.2825 6.24602C18.2369 6.8041 16.8942 6.43204 16.2882 5.44377C16.0981 5.11822 15.9912 4.76942 16.0149 4.42062C16.0506 3.96718 15.908 3.53699 15.6941 3.18818C15.2545 2.46733 14.4584 1.979 13.5791 1.979H11.9038C11.0364 2.00226 10.2403 2.46733 9.80064 3.18818C9.57488 3.53699 9.44418 3.96718 9.46795 4.42062C9.49171 4.76942 9.38477 5.11822 9.19466 5.44377C8.58868 6.43204 7.24601 6.8041 6.21227 6.24602C5.02407 5.57167 3.5507 5.9786 2.86154 7.12965L2.06544 8.5016C1.38817 9.65265 1.76839 11.1292 2.94471 11.792C3.95468 12.3849 4.31115 13.6988 3.71704 14.6987C3.51505 15.0126 3.30117 15.28 2.96848 15.4428C2.56449 15.6637 2.20803 16.0125 2.01791 16.3613C1.57828 17.0821 1.60204 17.989 2.04168 18.7448L2.86154 20.14C3.30117 20.8841 4.12103 21.3491 4.97654 21.3491C5.38053 21.3491 5.85581 21.2329 6.23603 21.0003C6.53308 20.8027 6.88955 20.7329 7.28165 20.7329C8.45797 20.7329 9.44418 21.698 9.46795 22.849C9.46795 24.1861 10.5611 25.2325 11.9394 25.2325H13.5554C14.9218 25.2325 16.0149 24.1861 16.0149 22.849C16.0506 21.698 17.0368 20.7329 18.2131 20.7329C18.5933 20.7329 18.9498 20.8027 19.2587 21.0003C19.639 21.2329 20.1024 21.3491 20.5182 21.3491C21.3619 21.3491 22.1817 20.8841 22.6214 20.14L23.4531 18.7448C23.8808 17.9658 23.9165 17.0821 23.4769 16.3613" stroke="black" stroke-width="2"/>
</svg>
