<svg width="24" height="25" viewBox="0 0 24 25" fill="none" xmlns="http://www.w3.org/2000/svg">
<path d="M11.8589 13.6926C10.439 11.5625 10.4987 2.93902 16.3805 2.61621L22.5776 8.86443L22.5776 20.2175L21.7993 22.9229L18.9592 23.6329L16.3805 22.9229L15.4089 16.5327L15.409 14.4026L11.8589 13.6926Z" fill="#D7D9E6"/>
<path d="M10.2864 0.552294C10.732 0.194822 11.2861 0 11.8574 0C12.4286 0 12.9828 0.194822 13.4283 0.552294L22.0754 7.49005C22.3688 7.7254 22.6055 8.02365 22.7681 8.36277C22.9307 8.70189 23.0151 9.07322 23.0149 9.44931V22.035C23.0149 22.7008 22.7504 23.3394 22.2796 23.8102C21.8088 24.281 21.1703 24.5455 20.5045 24.5455H17.1572C16.4914 24.5455 15.8528 24.281 15.382 23.8102C14.9112 23.3394 14.6467 22.7008 14.6467 22.035V15.3405C14.6467 15.1185 14.5586 14.9057 14.4016 14.7488C14.2447 14.5918 14.0319 14.5037 13.8099 14.5037H9.90479C9.68286 14.5037 9.47001 14.5918 9.31308 14.7488C9.15614 14.9057 9.06798 15.1185 9.06798 15.3405V22.035C9.06798 22.7008 8.80349 23.3394 8.33269 23.8102C7.86189 24.281 7.22335 24.5455 6.55753 24.5455H3.21027C2.54446 24.5455 1.90592 24.281 1.43512 23.8102C0.964322 23.3394 0.699829 22.7008 0.699829 22.035V9.44931C0.699829 8.68837 1.04571 7.96759 1.63929 7.49116L10.2864 0.55341V0.552294ZM12.3807 1.85773C12.2322 1.73875 12.0476 1.67393 11.8574 1.67393C11.6671 1.67393 11.4825 1.73875 11.3341 1.85773L2.68699 8.79548C2.58918 8.87385 2.51023 8.97319 2.45597 9.08617C2.4017 9.19914 2.3735 9.32286 2.37346 9.44819V22.0339C2.37346 22.4969 2.74835 22.8707 3.21027 22.8707H6.55753C6.77947 22.8707 6.99232 22.7825 7.14925 22.6256C7.30618 22.4687 7.39435 22.2558 7.39435 22.0339V15.3394C7.39435 14.6736 7.65884 14.035 8.12964 13.5642C8.60044 13.0934 9.23898 12.8289 9.90479 12.8289H13.8099C14.1397 12.8289 14.4662 12.8939 14.7709 13.0201C15.0755 13.1464 15.3523 13.3314 15.5855 13.5646C15.8186 13.7978 16.0035 14.0747 16.1296 14.3794C16.2557 14.6841 16.3205 15.0107 16.3204 15.3405V22.035C16.3204 22.498 16.6953 22.8718 17.1572 22.8718H20.5045C20.7264 22.8718 20.9392 22.7837 21.0962 22.6267C21.2531 22.4698 21.3413 22.2569 21.3413 22.035V9.44931C21.3414 9.32407 21.3133 9.20041 21.2593 9.08744C21.2052 8.97447 21.1265 8.87508 21.0289 8.79659L12.3818 1.85884L12.3807 1.85773Z" fill="black"/>
</svg>
