<svg width="22" height="20" viewBox="0 0 22 20" fill="none" xmlns="http://www.w3.org/2000/svg">
<path d="M19.8611 2.5H14.4444V6.25H7.22222V2.5H1.80556C0.808738 2.5 0 3.33984 0 4.375V18.125C0 19.1602 0.808738 20 1.80556 20H19.8611C20.8579 20 21.6667 19.1602 21.6667 18.125V4.375C21.6667 3.33984 20.8579 2.5 19.8611 2.5ZM10.8333 8.75C12.1612 8.75 13.2407 9.87109 13.2407 11.25C13.2407 12.6289 12.1612 13.75 10.8333 13.75C9.5055 13.75 8.42593 12.6289 8.42593 11.25C8.42593 9.87109 9.5055 8.75 10.8333 8.75ZM14.3429 17.5H7.32378C6.93258 17.5 6.61661 17.1094 6.73698 16.7266C7.04919 15.7266 7.95573 15 9.02778 15H9.33623C9.7989 15.1992 10.303 15.3125 10.8333 15.3125C11.3637 15.3125 11.8715 15.1992 12.3304 15H12.6389C13.7072 15 14.6137 15.7227 14.9297 16.7266C15.0501 17.1094 14.7341 17.5 14.3429 17.5ZM13.2407 1.25C13.2407 0.558594 12.7028 0 12.037 0H9.62963C8.96383 0 8.42593 0.558594 8.42593 1.25V5H13.2407V1.25Z" fill="#B45600"/>
</svg>
