<svg width="21" height="21" viewBox="0 0 21 21" fill="none" xmlns="http://www.w3.org/2000/svg">
<path d="M12.7498 16.3904C12.7498 16.3904 12.4187 14.1822 17.1152 13.9277L18.3626 14.5434L19.6098 16.3904V17.6217L18.9861 19.4688L15.2443 20.7001L13.997 18.8531L12.7498 16.3904Z" fill="#D7D9E6"/>
<path d="M0.504816 4.1448C0.504816 4.1448 0.173714 1.93659 4.87025 1.68213L6.11758 2.2978L7.36484 4.1448V5.37614L6.74115 7.22316L2.99931 8.4545L1.75204 6.60749L0.504816 4.1448Z" fill="#D7D9E6"/>
<path d="M19.2089 8.82546C19.66 8.82546 20.0926 8.64626 20.4116 8.32729C20.7306 8.00832 20.9098 7.57571 20.9098 7.12462V2.02212C20.9098 1.57103 20.7306 1.13842 20.4116 0.819452C20.0926 0.500483 19.66 0.321289 19.2089 0.321289H14.1064C13.6553 0.321289 13.2227 0.500483 12.9038 0.819452C12.5848 1.13842 12.4056 1.57103 12.4056 2.02212V7.12462C12.4056 7.57571 12.5848 8.00832 12.9038 8.32729C13.2227 8.64626 13.6553 8.82546 14.1064 8.82546H15.8073V12.3122C14.9901 12.4788 14.24 12.8821 13.6503 13.4718C13.0606 14.0615 12.6573 14.8116 12.4906 15.6288H9.00393V13.928C9.00393 13.4769 8.82473 13.0443 8.50576 12.7253C8.1868 12.4063 7.75418 12.2271 7.3031 12.2271H5.60226V8.74041C6.6347 8.52967 7.55212 7.94307 8.17664 7.09436C8.80116 6.24564 9.08831 5.19526 8.9824 4.14687C8.87649 3.09847 8.38507 2.12675 7.60342 1.42008C6.82177 0.713417 5.80558 0.322157 4.75185 0.322157C3.69812 0.322157 2.68192 0.713417 1.90027 1.42008C1.11862 2.12675 0.627207 3.09847 0.521297 4.14687C0.415388 5.19526 0.702529 6.24564 1.32705 7.09436C1.95158 7.94307 2.86899 8.52967 3.90143 8.74041V12.2271H2.2006C1.74951 12.2271 1.3169 12.4063 0.997928 12.7253C0.67896 13.0443 0.499766 13.4769 0.499766 13.928V19.0305C0.499766 19.4815 0.67896 19.9142 0.997928 20.2331C1.3169 20.5521 1.74951 20.7313 2.2006 20.7313H7.3031C7.75418 20.7313 8.1868 20.5521 8.50576 20.2331C8.82473 19.9142 9.00393 19.4815 9.00393 19.0305V17.3296H12.4906C12.6445 18.0822 12.9992 18.779 13.5173 19.3461C14.0354 19.9132 14.6974 20.3293 15.433 20.5503C16.1686 20.7714 16.9504 20.789 17.6952 20.6014C18.44 20.4138 19.1201 20.0279 19.6633 19.4848C20.2064 18.9417 20.5923 18.2616 20.7799 17.5167C20.9675 16.7719 20.9498 15.9901 20.7288 15.2545C20.5078 14.5189 20.0916 13.8569 19.5245 13.3388C18.9575 12.8208 18.2606 12.466 17.5081 12.3122V8.82546H19.2089ZM2.2006 4.57337C2.2006 4.06878 2.35023 3.57552 2.63056 3.15597C2.9109 2.73642 3.30935 2.40942 3.77553 2.21632C4.24171 2.02323 4.75468 1.9727 5.24957 2.07114C5.74446 2.16958 6.19905 2.41257 6.55585 2.76937C6.91265 3.12616 7.15563 3.58075 7.25407 4.07565C7.35251 4.57054 7.30199 5.08351 7.10889 5.54969C6.9158 6.01587 6.5888 6.41432 6.16924 6.69466C5.74969 6.97499 5.25644 7.12462 4.75185 7.12462C4.07521 7.12462 3.42629 6.85583 2.94784 6.37738C2.46939 5.89893 2.2006 5.25001 2.2006 4.57337ZM7.3031 19.0305H2.2006V13.928H7.3031V19.0305ZM19.2089 16.4792C19.2089 16.9838 19.0593 17.4771 18.779 17.8966C18.4986 18.3162 18.1002 18.6432 17.634 18.8363C17.1678 19.0294 16.6548 19.0799 16.1599 18.9814C15.6651 18.883 15.2105 18.64 14.8537 18.2832C14.4969 17.9264 14.2539 17.4718 14.1554 16.9769C14.057 16.482 14.1075 15.9691 14.3006 15.5029C14.4937 15.0367 14.8207 14.6383 15.2403 14.3579C15.6598 14.0776 16.1531 13.928 16.6577 13.928C17.3343 13.928 17.9832 14.1967 18.4617 14.6752C18.9401 15.1537 19.2089 15.8026 19.2089 16.4792ZM14.1064 2.02212H19.2089V7.12462H14.1064V2.02212Z" fill="black"/>
</svg>
