<svg width="23" height="22" viewBox="0 0 23 22" fill="none" xmlns="http://www.w3.org/2000/svg">
<path d="M7.2016 13.6831C7.2016 13.6831 -1.96818 5.20433 3.54268 4.90188L8.81915 0.51123V7.09717H21.991L21.991 9.68478V13.6831L21.2592 14.8072L16.1368 21.0008L15.4051 13.6831H7.2016Z" fill="#D7D9E6"/>
<path d="M21.827 13.157H0.940269C0.808208 13.157 0.700157 13.265 0.700157 13.3971V15.1979C0.700157 15.33 0.808208 15.438 0.940269 15.438H19.1048L14.7737 20.9306C14.6507 21.0867 14.7617 21.3208 14.9628 21.3208H17.1388C17.2859 21.3208 17.424 21.2548 17.517 21.1377L22.5834 14.7117C23.0786 14.0814 22.6314 13.157 21.827 13.157ZM22.5504 6.07367L3.76801 6.32496L8.7169 0.5811C8.83996 0.425027 8.72891 0.190918 8.52782 0.190918H6.3518C6.20473 0.190918 6.06667 0.256949 5.97362 0.374004L0.907254 6.80001C0.412022 7.4303 0.859231 8.35473 1.66061 8.35473H22.5504C22.6824 8.35473 22.7905 8.24668 22.7905 8.11462V6.31378C22.7905 6.18172 22.6824 6.07367 22.5504 6.07367Z" fill="black"/>
</svg>
